<svg xmlns="http://www.w3.org/2000/svg" width="1254" height="1254" viewBox="0 0 1254 1254" role="img" aria-labelledby="title desc">
  <title id="title">Bridge App Icon</title>
  <desc id="desc">Pure SVG bridge mark on a black rounded tile with a soft brand glow. No raster image embedded.</desc>
  <defs>
    <linearGradient id="bg" x1="0" y1="0" x2="0" y2="1254" gradientUnits="userSpaceOnUse">
      <stop offset="0" stop-color="#15191f"/>
      <stop offset="1" stop-color="#000000"/>
    </linearGradient>
    <radialGradient id="glow" cx="628" cy="600" r="480" gradientUnits="userSpaceOnUse">
      <stop offset="0" stop-color="#27e6f2" stop-opacity="0.34"/>
      <stop offset="0.55" stop-color="#1f9bff" stop-opacity="0.12"/>
      <stop offset="1" stop-color="#1f9bff" stop-opacity="0"/>
    </radialGradient>
  </defs>
  <rect x="0" y="0" width="1254" height="1254" rx="280" ry="280" fill="url(#bg)"/>
  <ellipse cx="628" cy="612" rx="554" ry="475" fill="url(#glow)"/>
  <g transform="translate(628 629.5) scale(1.32) translate(-628 -629.5)">
    <path fill="#ffffff" d="M 474 363 L 518 363 L 518 437.5 L 525 463.5 L 536 487.5 Q 548.93 511.07 568.5 528 Q 580.63 538.38 596.5 545 L 614.5 550 L 630.5 551 L 631.5 550 L 639.5 550 L 652.5 547 L 668.5 540 Q 687.34 528.84 701 512.5 Q 723.19 486.69 734 449.5 L 734 445.5 L 736 439.5 L 736 363 L 780 363 L 780 433.5 L 800 476.5 L 814 499.5 Q 833.6 527.9 858.5 551 Q 879.51 570.49 904.5 586 L 946.5 609 L 971.5 620 L 990.5 626 L 993.5 628 L 996.5 628 L 1006.5 632 L 1033.5 639 L 1038 639 L 1027.5 656 L 1023.5 656 L 1003.5 651 L 978.5 643 L 948.5 631 L 921.5 618 L 877.5 591 Q 854.02 574.48 834 554.5 Q 802.88 523.12 780.5 483 L 780 581.5 L 794.5 592 L 827.5 611 L 875.5 633 L 880.5 634 L 904.5 644 L 947.5 658 L 993.5 670 L 997.5 670 L 1002.5 672 L 1020 675 L 998 732.5 L 979.5 775 Q 970.99 738.51 948.5 716 Q 937.18 704.32 921.5 697 L 904.5 692 L 888.5 691 L 887.5 692 L 879.5 692 L 865.5 696 Q 846.8 703.8 834 717.5 L 823 730.5 L 810 753.5 L 803 772.5 L 797.5 799 L 797 624.5 L 794.5 622 L 780 614 L 780 895.5 L 779.5 896 L 737.5 896 L 736 896.5 L 736 690.5 Q 733.5 689 735 683.5 L 729 660.5 L 722 645.5 Q 711.03 626.47 694.5 613 Q 678.81 599.69 656.5 593 L 643.5 590 L 636.5 590 L 635.5 589 L 619.5 589 L 618.5 590 L 611.5 590 L 610.5 591 L 601.5 592 L 584.5 598 Q 563.67 607.67 549 623.5 Q 536.23 637.23 528 655.5 L 522 672.5 L 520 686.5 L 519 687.5 L 519 695.5 L 518 696.5 L 518 896 L 497.5 896 Q 496.5 898 492.5 897 L 491.5 896 L 474 896 L 473.5 614 L 457 624.5 L 456.5 798 Q 448.4 743.1 415.5 713 Q 403.97 702.53 388.5 696 L 373.5 692 L 356.5 691 L 355.5 692 L 349.5 692 L 348.5 693 L 340.5 694 L 326.5 700 Q 312.85 707.35 303 718.5 Q 282.75 740.75 274.5 775 L 251 719.5 L 250 714.5 L 237 683.5 L 235 675 L 247.5 673 L 252.5 671 L 256.5 671 L 261.5 669 L 265.5 669 L 289.5 663 L 293.5 661 L 304.5 659 L 370.5 637 L 403.5 623 L 427.5 611 L 474 583 L 473.5 483 Q 448.25 532.75 408.5 568 Q 390.31 584.31 369.5 598 L 323.5 624 L 288.5 639 L 265.5 647 L 244.5 652 L 240.5 654 L 227 656 L 218 639.5 L 245.5 633 L 279.5 622 L 322.5 603 L 347.5 589 L 368.5 575 Q 391.64 558.64 411 538.5 Q 430.8 517.8 446 492.5 L 464 458.5 L 474 434.5 L 474 363 Z"/>
  </g>
</svg>
