<svg xmlns="http://www.w3.org/2000/svg" width="1254" height="1254" viewBox="0 0 1254 1254" role="img" aria-labelledby="title desc">
  <title id="title">Burn Token Mark</title>
  <desc id="desc">Pure vector burn-token mark traced from foreground geometry. No raster image is embedded.</desc>
  <defs>
    <linearGradient id="burnGradient" x1="0" y1="120" x2="0" y2="1090" gradientUnits="userSpaceOnUse">
      <stop offset="0" stop-color="#ffc400"/>
      <stop offset="0.36" stop-color="#ff9300"/>
      <stop offset="0.66" stop-color="#ff5a00"/>
      <stop offset="1" stop-color="#f20b1f"/>
    </linearGradient>
    <radialGradient id="emberGradient" cx="32%" cy="24%" r="72%">
      <stop offset="0" stop-color="#fff3a5"/>
      <stop offset="0.42" stop-color="#ff6e00"/>
      <stop offset="1" stop-color="#f0081c"/>
    </radialGradient>
    <filter id="softLift" x="-18%" y="-18%" width="136%" height="136%">
      <feDropShadow dx="0" dy="8" stdDeviation="10" flood-color="#ff5a00" flood-opacity="0.10"/>
    </filter>
  </defs>
  <path d="M 846 790.5 L 844.5 789 L 844.5 769 L 840.5 740 L 831.5 711 L 814.5 677 L 784.5 637 L 759 612.5 L 733 594.5 L 711 583.5 L 688 575.5 L 646 567.5 L 609 567.5 L 578 572.5 L 545 583.5 L 503 607.5 L 467.5 640 L 451.5 660 L 434.5 686 L 423.5 708 L 414.5 735 L 409.5 763 L 408.5 788 L 407 789.5 L 398.5 779 L 383.5 750 L 373.5 710 L 374.5 674 L 380.5 650 L 385.5 639 L 388 637.5 L 391.5 652 L 395.5 659 L 400 663.5 L 409 666.5 L 415 664.5 L 419.5 660 L 423.5 649 L 423.5 626 L 413.5 565 L 414.5 538 L 421.5 508 L 430.5 488 L 443 470.5 L 444.5 473 L 439.5 498 L 443.5 525 L 453.5 546 L 477 574.5 L 489.5 557 L 493.5 538 L 491.5 515 L 479.5 480 L 473.5 453 L 472.5 426 L 477.5 396 L 487.5 369 L 505.5 339 L 531 311.5 L 549 299.5 L 551.5 301 L 542.5 313 L 533.5 332 L 527.5 358 L 527.5 384 L 531.5 406 L 544.5 439 L 564.5 469 L 592 495.5 L 608 506.5 L 614 509.5 L 615.5 508 L 590.5 480 L 571.5 446 L 563.5 422 L 561.5 410 L 560.5 379 L 563.5 360 L 571.5 336 L 582.5 314 L 622.5 254 L 635.5 223 L 639.5 199 L 638.5 177 L 631.5 151 L 622.5 134 L 624 132.5 L 636 141.5 L 655.5 161 L 673.5 185 L 689.5 217 L 696.5 244 L 697.5 271 L 695.5 288 L 687.5 316 L 673.5 352 L 668.5 376 L 668.5 404 L 671.5 420 L 683.5 450 L 698.5 472 L 719 490.5 L 720.5 489 L 712.5 475 L 706.5 454 L 706.5 426 L 711.5 409 L 718.5 395 L 734.5 372 L 742.5 354 L 744.5 345 L 744.5 326 L 740.5 313 L 742 311.5 L 748.5 318 L 758.5 336 L 764.5 357 L 764.5 381 L 753.5 429 L 754.5 454 L 762.5 482 L 785.5 526 L 790.5 540 L 793.5 554 L 792.5 581 L 794 582.5 L 803.5 565 L 808.5 550 L 812.5 523 L 811.5 503 L 807.5 485 L 802.5 471 L 793.5 455 L 795 453.5 L 803.5 460 L 827.5 486 L 839.5 506 L 847.5 525 L 853.5 550 L 853.5 584 L 845.5 616 L 829.5 652 L 828.5 663 L 830.5 671 L 835 676.5 L 840 678.5 L 848 676.5 L 855.5 669 L 860.5 659 L 863.5 641 L 866 637.5 L 873.5 653 L 878.5 672 L 880.5 699 L 878.5 719 L 872.5 742 L 861.5 767 L 846 790.5 Z M 777 912.5 L 768 912.5 L 764 910.5 L 758.5 905 L 755.5 895 L 756.5 890 L 764.5 878 L 776.5 853 L 786.5 813 L 786.5 774 L 783.5 757 L 775.5 732 L 764.5 710 L 751.5 691 L 724 663.5 L 706 651.5 L 688 642.5 L 671 636.5 L 645 631.5 L 622 630.5 L 603 632.5 L 565 643.5 L 529 665.5 L 503.5 691 L 493.5 705 L 480.5 729 L 472.5 751 L 467.5 773 L 467.5 818 L 473.5 845 L 476.5 851 L 476.5 860 L 469 869.5 L 464 871.5 L 456 871.5 L 450 868.5 L 444.5 861 L 435.5 827 L 432.5 798 L 433.5 775 L 437.5 752 L 446.5 723 L 461.5 693 L 477.5 670 L 506 640.5 L 536 619.5 L 570 604.5 L 605 596.5 L 650 596.5 L 676 601.5 L 712 615.5 L 748 639.5 L 775.5 668 L 794.5 696 L 807.5 723 L 812.5 738 L 819.5 773 L 819.5 814 L 812.5 849 L 805.5 869 L 793.5 894 L 785.5 907 L 777 912.5 Z M 700 762.5 L 552 762.5 L 547 760.5 L 541.5 755 L 538.5 743 L 541.5 735 L 552 727.5 L 701 727.5 L 708 731.5 L 712.5 737 L 714.5 748 L 711.5 755 L 707 759.5 L 700 762.5 Z M 631 915.5 L 619 914.5 L 613.5 910 L 609.5 902 L 609.5 796 L 611.5 790 L 622 781.5 L 631 781.5 L 635 783.5 L 640.5 789 L 643.5 800 L 642.5 905 L 637 912.5 L 631 915.5 Z" fill="url(#burnGradient)" fill-rule="evenodd" filter="url(#softLift)"/>
  <g id="tokenParticles">
    <circle cx="458.84" cy="930.55" r="9.96" fill="#fa4515"/>
    <circle cx="508.84" cy="935.75" r="16.53" fill="#f93d14"/>
    <circle cx="431.5" cy="893.58" r="7.68" fill="#fb5516"/>
    <circle cx="487.62" cy="889.25" r="14.25" fill="#fb5411"/>
    <circle cx="585.8" cy="945.1" r="8.03" fill="#f93819"/>
    <circle cx="549.71" cy="915.15" r="7.64" fill="#fc521b"/>
    <circle cx="664.61" cy="948.85" r="5.77" fill="#f93227"/>
    <circle cx="821.93" cy="890.58" r="7.35" fill="#f52820"/>
    <circle cx="743.34" cy="927.56" r="14.9" fill="#f6221d"/>
    <circle cx="798.18" cy="927.93" r="8.38" fill="#f21f21"/>
    <circle cx="704.38" cy="952.55" r="8.43" fill="#f6251e"/>
    <circle cx="765.07" cy="964.17" r="10.6" fill="#f31f21"/>
    <circle cx="732.84" cy="991.67" r="10.24" fill="#f31f21"/>
    <circle cx="630.21" cy="969.2" r="9.52" fill="#f5291c"/>
    <circle cx="675.91" cy="990.16" r="16.04" fill="#f4201f"/>
    <circle cx="701.73" cy="1030.98" r="8.01" fill="#f31e21"/>
    <circle cx="656.32" cy="1063.28" r="7.53" fill="#f42125"/>
    <circle cx="634.73" cy="1022.19" r="12.45" fill="#f31d1e"/>
    <circle cx="595.7" cy="1056.79" r="7.83" fill="#f22122"/>
    <circle cx="592.83" cy="993.18" r="13.33" fill="#f4241c"/>
    <circle cx="553.19" cy="1024.61" r="10.51" fill="#f6271e"/>
    <circle cx="515.12" cy="992.79" r="8.03" fill="#f7321e"/>
    <circle cx="474.98" cy="972.88" r="7.38" fill="#f83b1b"/>
    <circle cx="549.98" cy="967.69" r="13.65" fill="#f7311a"/>
  </g>
</svg>
