<svg xmlns="http://www.w3.org/2000/svg" width="1024" height="1024" viewBox="0 0 1024 1024" role="img" aria-labelledby="title desc">
  <title id="title">Panda Bridge Logo</title>
  <desc id="desc">Compact blue Bridge mark with connected relay loops and no white border.</desc>
  <defs>
    <linearGradient id="bridgeBg" x1="164" y1="80" x2="860" y2="944" gradientUnits="userSpaceOnUse">
      <stop offset="0" stop-color="#0b2f68"/>
      <stop offset="0.54" stop-color="#1167e8"/>
      <stop offset="1" stop-color="#061a35"/>
    </linearGradient>
    <linearGradient id="bridgeStroke" x1="180" y1="512" x2="844" y2="512" gradientUnits="userSpaceOnUse">
      <stop offset="0" stop-color="#6eeeff"/>
      <stop offset="0.33" stop-color="#338fff"/>
      <stop offset="0.5" stop-color="#7df8ff"/>
      <stop offset="0.67" stop-color="#338fff"/>
      <stop offset="1" stop-color="#75e4ff"/>
    </linearGradient>
    <linearGradient id="nodeFill" x1="276" y1="398" x2="748" y2="626" gradientUnits="userSpaceOnUse">
      <stop offset="0" stop-color="#d9fbff"/>
      <stop offset="0.48" stop-color="#80e7ff"/>
      <stop offset="1" stop-color="#338fff"/>
    </linearGradient>
    <filter id="bridgeLift" x="-12%" y="-16%" width="124%" height="132%">
      <feDropShadow dx="0" dy="16" stdDeviation="18" flood-color="#020b1a" flood-opacity="0.34"/>
    </filter>
  </defs>
  <rect width="1024" height="1024" fill="#061a35"/>
  <rect x="30" y="30" width="964" height="964" rx="204" fill="#0e4fb8"/>
  <g filter="url(#bridgeLift)">
    <path d="M 142 512 C 142 366 246 292 376 292 C 496 292 574 405 512 512 C 450 619 528 732 648 732 C 778 732 882 658 882 512 C 882 366 778 292 648 292 C 528 292 450 405 512 512 C 574 619 496 732 376 732 C 246 732 142 658 142 512 Z" fill="none" stroke="url(#bridgeStroke)" stroke-width="96" stroke-linecap="round" stroke-linejoin="round"/>
    <rect x="306" y="466" width="412" height="92" rx="46" fill="url(#bridgeStroke)"/>
    <circle cx="316" cy="512" r="92" fill="#0b2f68" stroke="url(#nodeFill)" stroke-width="38"/>
    <circle cx="708" cy="512" r="92" fill="#0b2f68" stroke="url(#nodeFill)" stroke-width="38"/>
    <circle cx="316" cy="512" r="32" fill="#baf7ff"/>
    <circle cx="708" cy="512" r="32" fill="#baf7ff"/>
    <g fill="#d8fbff" opacity="0.92">
      <circle cx="398" cy="512" r="13"/>
      <circle cx="455" cy="512" r="13"/>
      <circle cx="512" cy="512" r="13"/>
      <circle cx="569" cy="512" r="13"/>
      <circle cx="626" cy="512" r="13"/>
    </g>
  </g>
</svg>
