<svg xmlns="http://www.w3.org/2000/svg" viewBox="0 0 1024 1024">
  <rect width="1024" height="1024" rx="226" fill="#21483d"/>
  <g>
    <circle cx="310" cy="318" r="90" fill="#f5fbf6"/>
    <circle cx="714" cy="318" r="90" fill="#f5fbf6"/>
    <path d="M226 512c0-164 128-288 286-288s286 124 286 288v96c0 112-91 203-203 203H429c-112 0-203-91-203-203z" fill="#f5fbf6"/>
    <path d="M259 538c80-149 167-221 253-221s173 72 253 221c-54 22-106 33-155 33-42 0-74-10-98-31-24 21-56 31-98 31-49 0-101-11-155-33z" fill="#15251f"/>
    <circle cx="405" cy="495" r="42" fill="#f5fbf6"/>
    <circle cx="619" cy="495" r="42" fill="#f5fbf6"/>
    <circle cx="405" cy="495" r="18" fill="#15251f"/>
    <circle cx="619" cy="495" r="18" fill="#15251f"/>
    <path d="M486 580c12-18 40-18 52 0l16 24c14 21-1 50-26 50h-32c-25 0-40-29-26-50z" fill="#15251f"/>
    <path d="M314 705c112-94 237-111 371-38 25 14 34 45 20 70-13 24-44 33-69 20-94-51-176-39-256 36-20 19-52 18-72-2-19-21-17-66 6-86z" fill="#61efa7"/>
    <rect x="276" y="704" width="472" height="78" rx="39" fill="#61efa7"/>
    <rect x="325" y="632" width="21" height="116" rx="10.5" fill="#0e241f" opacity="0.82"/>
    <rect x="502" y="602" width="21" height="146" rx="10.5" fill="#0e241f" opacity="0.82"/>
    <rect x="679" y="632" width="21" height="116" rx="10.5" fill="#0e241f" opacity="0.82"/>
  </g>
</svg>
